<svg xmlns="http://www.w3.org/2000/svg" viewBox="0 0 200 200" fill="none" stroke="currentColor" stroke-width="0.8">
  <!-- Center of flower -->
  <circle cx="100" cy="100" r="8" fill="currentColor" opacity="0.3"/>
  
  <!-- Inner petals -->
  <ellipse cx="100" cy="70" rx="8" ry="25" transform="rotate(0 100 100)"/>
  <ellipse cx="100" cy="70" rx="8" ry="25" transform="rotate(30 100 100)"/>
  <ellipse cx="100" cy="70" rx="8" ry="25" transform="rotate(60 100 100)"/>
  <ellipse cx="100" cy="70" rx="8" ry="25" transform="rotate(90 100 100)"/>
  <ellipse cx="100" cy="70" rx="8" ry="25" transform="rotate(120 100 100)"/>
  <ellipse cx="100" cy="70" rx="8" ry="25" transform="rotate(150 100 100)"/>
  <ellipse cx="100" cy="70" rx="8" ry="25" transform="rotate(180 100 100)"/>
  <ellipse cx="100" cy="70" rx="8" ry="25" transform="rotate(210 100 100)"/>
  <ellipse cx="100" cy="70" rx="8" ry="25" transform="rotate(240 100 100)"/>
  <ellipse cx="100" cy="70" rx="8" ry="25" transform="rotate(270 100 100)"/>
  <ellipse cx="100" cy="70" rx="8" ry="25" transform="rotate(300 100 100)"/>
  <ellipse cx="100" cy="70" rx="8" ry="25" transform="rotate(330 100 100)"/>
  
  <!-- Middle layer petals -->
  <ellipse cx="100" cy="60" rx="10" ry="35" transform="rotate(15 100 100)"/>
  <ellipse cx="100" cy="60" rx="10" ry="35" transform="rotate(45 100 100)"/>
  <ellipse cx="100" cy="60" rx="10" ry="35" transform="rotate(75 100 100)"/>
  <ellipse cx="100" cy="60" rx="10" ry="35" transform="rotate(105 100 100)"/>
  <ellipse cx="100" cy="60" rx="10" ry="35" transform="rotate(135 100 100)"/>
  <ellipse cx="100" cy="60" rx="10" ry="35" transform="rotate(165 100 100)"/>
  <ellipse cx="100" cy="60" rx="10" ry="35" transform="rotate(195 100 100)"/>
  <ellipse cx="100" cy="60" rx="10" ry="35" transform="rotate(225 100 100)"/>
  <ellipse cx="100" cy="60" rx="10" ry="35" transform="rotate(255 100 100)"/>
  <ellipse cx="100" cy="60" rx="10" ry="35" transform="rotate(285 100 100)"/>
  <ellipse cx="100" cy="60" rx="10" ry="35" transform="rotate(315 100 100)"/>
  <ellipse cx="100" cy="60" rx="10" ry="35" transform="rotate(345 100 100)"/>
  
  <!-- Outer petals -->
  <ellipse cx="100" cy="50" rx="12" ry="45" transform="rotate(0 100 100)"/>
  <ellipse cx="100" cy="50" rx="12" ry="45" transform="rotate(22.5 100 100)"/>
  <ellipse cx="100" cy="50" rx="12" ry="45" transform="rotate(45 100 100)"/>
  <ellipse cx="100" cy="50" rx="12" ry="45" transform="rotate(67.5 100 100)"/>
  <ellipse cx="100" cy="50" rx="12" ry="45" transform="rotate(90 100 100)"/>
  <ellipse cx="100" cy="50" rx="12" ry="45" transform="rotate(112.5 100 100)"/>
  <ellipse cx="100" cy="50" rx="12" ry="45" transform="rotate(135 100 100)"/>
  <ellipse cx="100" cy="50" rx="12" ry="45" transform="rotate(157.5 100 100)"/>
  <ellipse cx="100" cy="50" rx="12" ry="45" transform="rotate(180 100 100)"/>
  <ellipse cx="100" cy="50" rx="12" ry="45" transform="rotate(202.5 100 100)"/>
  <ellipse cx="100" cy="50" rx="12" ry="45" transform="rotate(225 100 100)"/>
  <ellipse cx="100" cy="50" rx="12" ry="45" transform="rotate(247.5 100 100)"/>
  <ellipse cx="100" cy="50" rx="12" ry="45" transform="rotate(270 100 100)"/>
  <ellipse cx="100" cy="50" rx="12" ry="45" transform="rotate(292.5 100 100)"/>
  <ellipse cx="100" cy="50" rx="12" ry="45" transform="rotate(315 100 100)"/>
  <ellipse cx="100" cy="50" rx="12" ry="45" transform="rotate(337.5 100 100)"/>
  
  <!-- Stem -->
  <path d="M 100 145 Q 95 160, 90 180" stroke-width="1.5"/>
  
  <!-- Leaves -->
  <path d="M 95 160 Q 80 165, 70 160 Q 80 155, 95 160" fill="none"/>
  <path d="M 92 170 Q 75 175, 65 172 Q 75 167, 92 170" fill="none"/>
</svg>
