<svg width="200" height="200" viewBox="0 0 200 200" xmlns="http://www.w3.org/2000/svg">
  <!-- Delicate botanical corner illustration - mirrored -->
  <g stroke="#8B2635" stroke-width="1.5" fill="none">
    <!-- Main stem -->
    <path d="M 180 20 Q 160 60, 140 100 Q 120 140, 100 180" stroke-linecap="round"/>
    
    <!-- Side branches -->
    <path d="M 155 70 Q 170 65, 180 70" stroke-linecap="round"/>
    <path d="M 135 110 Q 125 120, 115 125" stroke-linecap="round"/>
    <path d="M 115 150 Q 105 155, 95 158" stroke-linecap="round"/>
    
    <!-- Flower heads -->
    <circle cx="100" cy="180" r="4"/>
    <circle cx="96" cy="180" r="2"/>
    <circle cx="104" cy="180" r="2"/>
    <circle cx="100" cy="176" r="2"/>
    <circle cx="100" cy="184" r="2"/>
    
    <circle cx="180" cy="70" r="3"/>
    <circle cx="177" cy="70" r="1.5"/>
    <circle cx="183" cy="70" r="1.5"/>
    
    <circle cx="115" cy="125" r="3"/>
    <circle cx="112" cy="125" r="1.5"/>
    <circle cx="118" cy="125" r="1.5"/>
  </g>
  
  <g stroke="#D98B8E" stroke-width="1" fill="none">
    <!-- Small accent flowers -->
    <circle cx="95" cy="158" r="2.5"/>
    <circle cx="93" cy="156" r="1"/>
    <circle cx="97" cy="160" r="1"/>
  </g>
</svg>
