<svg width="200" height="200" viewBox="0 0 200 200" xmlns="http://www.w3.org/2000/svg">
  <!-- Delicate botanical corner illustration -->
  <g stroke="#D98B8E" stroke-width="1.5" fill="none">
    <!-- Main stem -->
    <path d="M 20 180 Q 40 140, 60 100 Q 80 60, 100 20" stroke-linecap="round"/>
    
    <!-- Side branches -->
    <path d="M 45 130 Q 30 125, 20 130" stroke-linecap="round"/>
    <path d="M 65 90 Q 75 80, 85 75" stroke-linecap="round"/>
    <path d="M 85 50 Q 95 45, 105 42" stroke-linecap="round"/>
    
    <!-- Flower heads -->
    <circle cx="100" cy="20" r="4"/>
    <circle cx="96" cy="20" r="2"/>
    <circle cx="104" cy="20" r="2"/>
    <circle cx="100" cy="16" r="2"/>
    <circle cx="100" cy="24" r="2"/>
    
    <circle cx="20" cy="130" r="3"/>
    <circle cx="17" cy="130" r="1.5"/>
    <circle cx="23" cy="130" r="1.5"/>
    
    <circle cx="85" cy="75" r="3"/>
    <circle cx="82" cy="75" r="1.5"/>
    <circle cx="88" cy="75" r="1.5"/>
  </g>
  
  <g stroke="#8B2635" stroke-width="1" fill="none">
    <!-- Small accent flowers -->
    <circle cx="105" cy="42" r="2.5"/>
    <circle cx="103" cy="40" r="1"/>
    <circle cx="107" cy="44" r="1"/>
  </g>
</svg>
